<svg id="visual" viewBox="0 0 960 300" width="960" height="300" xmlns="http://www.w3.org/2000/svg" xmlns:xlink="http://www.w3.org/1999/xlink" version="1.1"><rect x="0" y="0" width="960" height="300" fill="#002233"></rect><path d="M0 38L26.7 50.7C53.3 63.3 106.7 88.7 160 100.2C213.3 111.7 266.7 109.3 320 96.5C373.3 83.7 426.7 60.3 480 60.7C533.3 61 586.7 85 640 97.2C693.3 109.3 746.7 109.7 800 105C853.3 100.3 906.7 90.7 933.3 85.8L960 81L960 301L933.3 301C906.7 301 853.3 301 800 301C746.7 301 693.3 301 640 301C586.7 301 533.3 301 480 301C426.7 301 373.3 301 320 301C266.7 301 213.3 301 160 301C106.7 301 53.3 301 26.7 301L0 301Z" fill="#fa7268"></path><path d="M0 172L26.7 172.8C53.3 173.7 106.7 175.3 160 170.7C213.3 166 266.7 155 320 145.7C373.3 136.3 426.7 128.7 480 134.2C533.3 139.7 586.7 158.3 640 157.8C693.3 157.3 746.7 137.7 800 132.8C853.3 128 906.7 138 933.3 143L960 148L960 301L933.3 301C906.7 301 853.3 301 800 301C746.7 301 693.3 301 640 301C586.7 301 533.3 301 480 301C426.7 301 373.3 301 320 301C266.7 301 213.3 301 160 301C106.7 301 53.3 301 26.7 301L0 301Z" fill="#eb5967"></path><path d="M0 187L26.7 187.3C53.3 187.7 106.7 188.3 160 185C213.3 181.7 266.7 174.3 320 177.2C373.3 180 426.7 193 480 195.3C533.3 197.7 586.7 189.3 640 192C693.3 194.7 746.7 208.3 800 215.2C853.3 222 906.7 222 933.3 222L960 222L960 301L933.3 301C906.7 301 853.3 301 800 301C746.7 301 693.3 301 640 301C586.7 301 533.3 301 480 301C426.7 301 373.3 301 320 301C266.7 301 213.3 301 160 301C106.7 301 53.3 301 26.7 301L0 301Z" fill="#da3f67"></path><path d="M0 230L26.7 236.2C53.3 242.3 106.7 254.7 160 254.8C213.3 255 266.7 243 320 234.3C373.3 225.7 426.7 220.3 480 218.3C533.3 216.3 586.7 217.7 640 220.2C693.3 222.7 746.7 226.3 800 228.2C853.3 230 906.7 230 933.3 230L960 230L960 301L933.3 301C906.7 301 853.3 301 800 301C746.7 301 693.3 301 640 301C586.7 301 533.3 301 480 301C426.7 301 373.3 301 320 301C266.7 301 213.3 301 160 301C106.7 301 53.3 301 26.7 301L0 301Z" fill="#c62368"></path></svg>